<svg xmlns="http://www.w3.org/2000/svg" width="256" height="256"><path fill-opacity=".016" d="M0 128.004v128.004l128.25-.254 128.25-.254.254-127.75L257.008 0H0v128.004m.485.496c0 70.4.119 99.053.265 63.672.146-35.38.146-92.98 0-128C.604 29.153.485 58.1.485 128.5" fill="#1976D2" fill-rule="evenodd"/><path fill-opacity=".311" d="M91.056 23.816c-.061 1.442 1.825 5.39 2.954 6.184.391.275 1.479 1.999 2.418 3.831 1.15 2.244 2.201 3.142 3.221 2.75.833-.32 1.755-.581 2.049-.581.294 0-.98-1.717-2.832-3.815-1.851-2.098-4.353-5.136-5.56-6.75-1.207-1.614-2.22-2.343-2.25-1.619m10.509 14.513c-1.45 1.06-1.597 1.718-.725 3.25 2.574 4.523 2.69 4.592 5.501 3.312 3.273-1.492 3.278-1.743.119-5.151-2.969-3.201-2.594-3.093-4.895-1.411m6.185 8.243c-1.513.821-2.75 1.677-2.75 1.903 0 .332 3.736 7.13 4.588 8.349.363.52 6.225-2.713 6.9-3.805.567-.918-4.353-8.07-5.488-7.979-.275.022-1.737.711-3.25 1.532m34.011 9.493c-4.28 2.257-7.753 8.127-7.776 13.145-.027 5.785-.986 6.353-7.561 4.482-5.717-1.626-5.786-1.62-10.395.889-2.552 1.389-6.865 4.189-9.584 6.222-7.606 5.687-12.573 7.768-21.258 8.906-6.903.905-3.524 2.142 7.815 2.862 14.594.927 17.267.039 25.89-8.601 3.826-3.833 7.692-6.97 8.591-6.97 2.083 0 1.756.49-5.604 8.39C115.084 92.685 108.392 96 100.462 96 97.445 96 96 96.425 96 97.313c0 1.377-3.572 8.736-7.129 14.687-3.939 6.591-13.341 18.476-19.107 24.153-3.17 3.121-5.764 6.292-5.764 7.045 0 2.981 11.223 7.358 16.384 6.39 1.789-.336 6.073-2.443 9.519-4.682 7.036-4.572 14.087-7.254 25.038-9.524 9.361-1.94 15.932-5.291 18.749-9.562 1.205-1.826 4.26-7.467 6.789-12.535 2.529-5.068 5.108-9.529 5.73-9.914.766-.474.901-.1.417 1.16-.392 1.023-1.437 4.134-2.322 6.914-.885 2.78-2.008 5.572-2.494 6.203-.487.631-1.066 2.085-1.287 3.231-.399 2.075-5.824 10.571-7.352 11.515-.442.273-.676 4.392-.521 9.154.255 7.81.042 9.012-2.184 12.287-3.796 5.586-2.939 6.042 2.109 1.123 11.217-10.931 21.639-27.703 23.885-38.437 1.332-6.368 1.177-9.781-.879-19.367-.731-3.409-5.357-11.138-8.961-14.974-2.709-2.883-2.919-3.475-1.597-4.5 3.269-2.532 5.977-7.092 5.976-10.065-.001-3.476-3.291-12.905-4.634-13.28-.476-.133-2.548.646-4.604 1.73m-26.011 1.003c-3.987 2.105-4.359 2.926-2.715 5.998 1.259 2.352 8.533 2.702 11.474.551 1.823-1.333 1.784-1.513-1.058-4.928-1.623-1.95-3.176-3.557-3.451-3.573-.275-.015-2.187.863-4.25 1.952m25.222 9.037c-1.132 4.204-.681 7.451.899 6.475 1.643-1.016 4.141-7.385 3.526-8.989-1.112-2.897-3.303-1.652-4.425 2.514m-14.992-.581c-1.543 1.859-1.353 2.055 2.858 2.958l3.337.715-1.702-2.598c-1.965-3-2.742-3.185-4.493-1.075m-15.48 1.477c-6.163 1.533-8.687 3.132-16.535 10.472-4.427 4.14-8.48 7.527-9.007 7.527-.527 0-.958.486-.958 1.079 0 2.896 17.215-4.408 25.748-10.924 2.573-1.965 6.72-4.106 9.215-4.758 4.321-1.128 4.418-1.231 2.037-2.145-4.314-1.656-7.398-2.023-10.5-1.251m53.5 21.58c0 .411 2.598 3.71 5.774 7.333 11.26 12.845 14.283 16.969 18.248 24.891 2.206 4.408 4.341 9.967 4.745 12.354.928 5.494.951 23.767.039 30.341-2.042 14.716-13.622 33.94-24.63 40.889-4.59 2.897-16.067 7.517-20.585 8.286-1.599.272-3.991.907-5.315 1.41-1.323.503-2.939.883-3.591.845-1.213-.073 5.504-2.793 8.448-3.421 5.449-1.164 22.666-12.233 26.105-16.783 4.233-5.6 9.762-13.683 9.762-14.271 0-.31.878-2.492 1.951-4.847 2.355-5.17 2.816-7.297 4.296-19.841 2.39-20.252-3.078-35.419-20.738-57.517-6.527-8.168-9.375-9.852-3.994-2.362 9.875 13.746 13.454 28.205 10.052 40.612-.905 3.3-1.816 6.675-2.024 7.5-.866 3.424-4.883 11.369-8.468 16.749-4.594 6.894-13.532 15.542-21.075 20.394-9.848 6.335-18.938 11.857-19.518 11.857-1.782 0-11.806 8.629-14.222 12.242-2.843 4.252-5.26 9.145-5.26 10.647 0 .674 7.999 3.601 8.76 3.206.144-.075 1.584.549 3.201 1.385 3.34 1.727 12.409 1.963 18.8.488 2.344-.541 5.818-1.182 7.719-1.426 10.766-1.378 27.836-8.897 37.048-16.318 9.048-7.29 22.195-25.509 23.974-33.224.19-.825 1.335-4.65 2.544-8.5 1.786-5.688 2.096-8.49 1.657-14.95-.464-6.818-1.14-9.095-4.747-16-2.37-4.538-7.314-11.54-11.33-16.05C184.334 106.313 164 87.236 164 88.581m-8 .725c0 .403 1.082 3.397 2.405 6.652 2.032 5.002 2.38 7.438 2.244 15.73-.155 9.466-.316 10.12-4.567 18.558-5.799 11.513-17.056 25.137-26.418 31.974-4.053 2.96-12.049 7.746-17.767 10.636-16.572 8.374-23.599 13.589-29.165 21.644-11.589 16.769-11.773 17.165-8.03 17.277 1.539.046 6.23 1.027 10.424 2.18 4.194 1.153 9.287 1.969 11.317 1.813 3.903-.299 4.12-.548 8.561-9.77 3.023-6.277 8.126-11.332 17.781-17.612 4.556-2.963 8.535-5.388 8.841-5.388.857 0 12.326-8.004 17.493-12.209 6.056-4.927 16.816-21.063 18.444-27.658.222-.898 1.079-4.333 1.904-7.633 2.177-8.699 1.899-14.722-1.086-23.5-.281-.825-.459-1.625-.397-1.777.062-.153-.764-1.953-1.837-4-1.073-2.048-3.165-6.198-4.648-9.223-2.542-5.181-5.499-9.319-5.499-7.694" fill="#1976D2" fill-rule="evenodd"/><path fill-opacity=".265" d="M91.032 24.191c-.018.93.427 1.974.987 2.321.56.346 2.162 2.886 3.56 5.643 1.809 3.571 2.978 4.845 4.062 4.429.838-.321 1.763-.584 2.057-.584.294 0-.981-1.687-2.833-3.75-1.852-2.062-4.365-5.1-5.585-6.75-1.588-2.149-2.226-2.52-2.248-1.309m10.113 14.699c-1.311.83-1.047 1.572 2.466 6.94.118.181 1.398-.445 2.843-1.392l2.628-1.722-2.215-2.358c-2.37-2.523-3.572-2.831-5.722-1.468m6.562 7.756l-2.713 1.421 2.023 3.967c2.249 4.408 4.192 4.914 7.905 2.06l2.422-1.862-2.422-3.048c-3.146-3.959-3.959-4.244-7.215-2.538M143.5 55.43c-5.781 2.534-9.5 8.436-9.5 15.076 0 1.857-.442 3.649-.981 3.982-.54.334-3.667.12-6.949-.475-6.915-1.254-9.079-.533-18.07 6.024-7.691 5.609-17.366 9.95-22.343 10.026-3.691.057-3.887.172-1.749 1.026 3.599 1.44 16.142 2.281 21.661 1.453 4.277-.641 5.752-1.604 12.463-8.135C124.571 78.044 129 75.313 129 77.645c0 .355-3.258 3.97-7.24 8.033-7.752 7.909-12.679 10.311-21.192 10.332-3.962.009-4.109.133-5.639 4.75-2.36 7.121-13.758 23.735-22.332 32.552-4.179 4.297-7.583 8.572-7.566 9.5.067 3.585 9.739 7.829 15.416 6.764 1.824-.342 5.114-1.924 7.311-3.516 2.196-1.591 5.939-3.885 8.316-5.098 4.817-2.457 20.129-6.93 23.79-6.95 3.466-.018 9.641-3.813 12.995-7.987 1.612-2.005 4.99-7.747 7.507-12.759 4.315-8.592 6.634-11.825 6.634-9.25 0 3.378-8.65 22.698-11.649 26.017-2.972 3.29-3.261 4.074-2.368 6.422 2.218 5.833.541 14.812-3.735 20.008-.922 1.121 1.37-.888 5.093-4.463 12.846-12.334 22.94-31.035 22.873-42.38-.062-10.669-5.314-22.781-12.422-28.646-1.768-1.459-1.695-1.676 1.679-4.946 3.214-3.115 3.527-3.915 3.503-8.974-.015-3.109-.785-7.179-1.75-9.246-1.687-3.613-1.788-3.664-4.724-2.378M116 57.202a929.96 929.96 0 00-3.787 2.354c-.159.102.251 1.369.91 2.815.952 2.089 1.897 2.629 4.603 2.629 3.927 0 7.288-1.525 7.242-3.285-.028-1.074-4.403-6.742-5.17-6.698-.164.009-1.873.992-3.798 2.185m25.511 6.499c-1.224 2.97-1.763 9.299-.792 9.299 1.677 0 5.411-6.072 5.095-8.285-.392-2.741-3.309-3.429-4.303-1.014m-15.322 1.572c-.852 1.026-.435 1.573 1.856 2.438 3.363 1.269 3.827.389 1.098-2.081-1.522-1.378-2.054-1.442-2.954-.357m-15.972 1.787c-4.222.901-12.001 6.276-20.217 13.971-5.871 5.498-6.21 6.02-3.5 5.4 5.863-1.342 13.118-4.891 21.712-10.622 5.314-3.544 9.779-5.809 11.45-5.809 1.67 0 2.367-.354 1.788-.907-1.709-1.632-7.88-2.748-11.233-2.033m58.432 27.475c2.832 3.281 6.306 7.043 7.72 8.361 4.558 4.249 12.537 17.478 15.119 25.069 2.178 6.403 2.512 9.124 2.512 20.46 0 11.166-.383 14.389-2.627 22.075-1.445 4.95-4.338 11.925-6.428 15.5-4.757 8.135-13.739 17.355-19.996 20.526-6.024 3.052-18.211 7.144-23.449 7.872-3.453.481-3.111.219 2.5-1.911 13.989-5.312 23.452-11.694 31.037-20.933 10.014-12.198 14.343-25.346 14.342-43.554 0-11.711-1.405-18.168-5.912-27.169-3.206-6.404-14.496-22.465-18.194-25.883-2.052-1.897-3.016-2.548-2.143-1.448 3.622 4.563 9.966 16.461 11.461 21.494 1.128 3.799 1.451 7.636 1.091 12.952-.722 10.657-1.765 14.512-6.665 24.637-3.671 7.583-5.741 10.318-13.937 18.411-6.53 6.448-12.353 11.092-18.103 14.436-14.453 8.406-22.846 13.8-24.86 15.978-1.777 1.922-8.117 13.575-8.117 14.92 0 .32 1.688.895 3.75 1.278 2.063.383 5.7 1.528 8.083 2.545 5.634 2.404 12.052 2.336 23.979-.257 20.361-4.426 32.967-10.428 43.526-20.725 11.255-10.977 18.765-23.517 22.257-37.169 2.279-8.908 1.427-24.756-1.556-28.945-1.121-1.575-2.039-3.318-2.039-3.873 0-.555-2.636-4.535-5.857-8.845-6.281-8.404-15.679-17.917-26.143-26.46l-6.5-5.307 5.149 5.965M158.656 96c1.607 3.98 2.81 9.236 3.103 13.557.424 6.237.123 7.905-2.583 14.346-4.718 11.229-10.965 20.85-19.045 29.332-8.047 8.448-13.816 12.418-30.849 21.232-15.501 8.021-21.212 12.913-29.966 25.668l-7.299 10.635 7.241 1.649c11.504 2.62 19.616 3.437 20.735 2.09.531-.64 2.541-4.241 4.467-8.002 5.121-9.999 6.296-11.013 29.54-25.488 18.609-11.589 27.328-21.838 33.552-39.443 1.899-5.371 2.448-8.932 2.448-15.867 0-8.392-.286-9.619-4.638-19.93-2.551-6.044-5.694-12.179-6.984-13.634l-2.346-2.645 2.624 6.5" fill="#1976D2" fill-rule="evenodd"/><path fill-opacity=".984" d="M92.214 26.195c.801 1.208 2.047 2.392 2.768 2.632.817.273.596-.543-.586-2.163-2.297-3.151-4.24-3.568-2.182-.469m4.794 7.817c1.18 1.656 2.594 2.734 3.144 2.394.581-.359.057-1.619-1.251-3.011-3.183-3.389-4.451-2.976-1.893.617m4.742 4.735c-2.205.503-2.162 1.178.255 4.079 1.361 1.633 2.543 2.135 3.967 1.683 1.115-.354 2.028-.985 2.028-1.402 0-1.56-4.565-4.744-6.25-4.36m5.546 8.453l-2.204 1.064 2.204 3.86c2.443 4.28 4.516 4.847 7.135 1.952 1.662-1.836 1.637-2.065-.533-5-2.444-3.306-3.198-3.52-6.602-1.876m34.545 9.311C138.035 58.597 135 64.025 135 68.746c0 5.847-1.688 6.851-9.176 5.458-5.072-.943-6.501-.879-8.697.388-7.082 4.088-10.314 6.235-12.551 8.337-1.345 1.263-6.323 3.756-11.063 5.539l-8.617 3.241 5.302.637c14.781 1.775 18.408.634 28.055-8.828 5.124-5.024 8.155-7.299 9.195-6.9.854.328 1.552.918 1.552 1.312 0 1.378-16.772 17.071-18.378 17.195-.892.069-2.072.237-2.622.375-.55.138-3.417.306-6.372.375L96.256 96l-.601 3.758c-1.026 6.412-20.741 34.319-27.793 39.341-3.918 2.789-3.609 5.113 1.024 7.717 5.504 3.093 13.182 2.992 17.431-.23 4.315-3.272 16.671-9.378 20.264-10.016 7.103-1.259 18.764-4.661 21.482-6.266 3.596-2.124 6.321-6.126 12.361-18.152 4.385-8.731 6.587-11.214 6.566-7.402-.019 3.477-8.02 21.581-11.322 25.618-2.54 3.106-3.184 4.629-2.594 6.132 1.725 4.394.967 11.886-1.669 16.5l-2.57 4.5 2.712-2.5c6.093-5.615 16.482-19.718 20.501-27.83 5.569-11.238 6.431-19.837 2.948-29.426-2.436-6.707-6.987-14.155-10.391-17.007-1.857-1.554-1.925-1.908-.582-3 5.779-4.693 7.113-9.958 4.62-18.229-1.343-4.459-2.891-5.14-6.802-2.997M115.5 57.829c-1.65.919-3.148 1.744-3.33 1.834-.181.09.433 1.328 1.365 2.75 1.946 2.97 6.792 3.533 10.024 1.165 1.915-1.403 1.912-1.46-.165-4.25-2.543-3.415-3.968-3.685-7.894-1.499m26.5 4.672C140.18 64.693 139.397 73 141.01 73c2.981 0 6.508-7.164 4.955-10.065-1.244-2.325-2.301-2.441-3.965-.434m-15.811 2.772c-.852 1.026-.435 1.573 1.856 2.438 3.363 1.269 3.827.389 1.098-2.081-1.522-1.378-2.054-1.442-2.954-.357M103 70.505c-3.025 1.841-8.153 6.048-11.396 9.348l-5.896 6 4.396-.976c4.447-.987 16.116-7.315 21.121-11.453 1.498-1.238 4.416-2.81 6.484-3.493 3.245-1.071 3.488-1.347 1.775-2.016-4.62-1.804-10.88-.821-16.484 2.59m57.071 29.242c4.115 14.392 1.099 26.288-10.96 43.232-9.584 13.465-17.614 20.104-36.111 29.853-11.774 6.206-22.767 13.148-25.363 16.017-2.495 2.757-10.239 14.031-12.596 18.337-1.88 3.437-1.899 3.722-.279 4.213 3.16.955 14.651 2.87 20.008 3.333l5.27.455 3.083-6.798c3.191-7.038 11.751-16.623 17.526-19.623 15.267-7.933 29.539-18.79 35.843-27.266 10.233-13.759 12.923-21.284 12.866-36l-.043-11-5.109-10.75c-2.81-5.912-5.324-10.75-5.587-10.75-.263 0 .39 3.036 1.452 6.747m12.57-1.497c10.478 11.432 16.302 20.85 19.943 32.25 2.816 8.817 2.602 27.048-.452 38.5-3.277 12.29-10.474 24.673-18.858 32.447-2.205 2.044-16.1 9.471-18.712 10.001-.584.118-3.087.801-5.562 1.518-8.132 2.353-11 2.848-11 1.897 0-.509.787-1.18 1.75-1.491 17.758-5.733 29.659-13.821 37.598-25.551 3.097-4.577 6.873-11.696 8.39-15.821 2.572-6.994 2.759-8.552 2.76-23.099.001-9.881-.427-16.478-1.168-18-.644-1.32-2.258-4.876-3.588-7.901-2.967-6.75-10.344-18.126-15.24-23.5l-3.644-4 2.851 4.5c7.203 11.371 7.798 13.457 7.706 27-.079 11.739-.279 12.954-3.278 19.957-8.44 19.706-17.04 28.233-45.01 44.633-10.276 6.025-17.447 12.76-20.347 19.108-1.206 2.641-2.363 5.14-2.57 5.552-.207.412.556.75 1.696.75s4.44.9 7.333 1.999c15.371 5.843 48.559-2.385 65.928-16.344 10.811-8.688 23.845-28.36 25.436-38.388.329-2.072 1.002-4.525 1.497-5.451 1.262-2.363 1.121-14.017-.237-19.623-2.064-8.518-9.37-19.277-20.628-30.378-5.753-5.673-11.391-11.328-12.528-12.565-1.137-1.237-2.494-2.25-3.015-2.25-.521 0 .806 1.912 2.949 4.25" fill="#1976D2" fill-rule="evenodd"/></svg>